<?xml version="1.0" encoding="utf-8"?>
<!-- Generator: Adobe Illustrator 19.0.0, SVG Export Plug-In . SVG Version: 6.00 Build 0)  -->
<svg version="1.1" id="Ebene_1" xmlns="http://www.w3.org/2000/svg" xmlns:xlink="http://www.w3.org/1999/xlink" x="0px" y="0px"
	 viewBox="0 0 312 312" style="enable-background:new 0 0 312 312;" xml:space="preserve">
<style type="text/css">
	.st0{fill:#4B4B4B;}
	.st1{fill:#959595;}
</style>
<g id="XMLID_4_">
	
		<rect id="XMLID_5_" x="162.9" y="0.2" transform="matrix(0.9986 5.233596e-02 -5.233596e-02 0.9986 0.5232 -8.5688)" class="st0" width="2" height="11"/>
	
		<rect id="XMLID_6_" x="170.7" y="0.8" transform="matrix(0.9945 0.1045 -0.1045 0.9945 1.6018 -17.9162)" class="st0" width="2" height="11"/>
	
		<rect id="XMLID_7_" x="178.5" y="1.9" transform="matrix(0.9877 0.1564 -0.1564 0.9877 3.3607 -27.9962)" class="st0" width="2" height="11"/>
	
		<rect id="XMLID_8_" x="186.3" y="3.3" transform="matrix(0.9781 0.2079 -0.2079 0.9781 5.92 -38.7479)" class="st0" width="2" height="11"/>
	
		<rect id="XMLID_9_" x="194" y="5.1" transform="matrix(0.9659 0.2588 -0.2588 0.9659 9.3936 -50.0952)" class="st0" width="2" height="11"/>
	
		<rect id="XMLID_10_" x="201.5" y="7.4" transform="matrix(0.9511 0.309 -0.309 0.9511 13.8872 -61.9484)" class="st0" width="2" height="11"/>
	
		<rect id="XMLID_11_" x="208.9" y="10" transform="matrix(0.9336 0.3584 -0.3584 0.9336 19.4971 -74.2045)" class="st0" width="2" height="11"/>
	
		<rect id="XMLID_12_" x="216.2" y="13" transform="matrix(0.9135 0.4067 -0.4067 0.9135 26.3084 -86.7484)" class="st0" width="2" height="11"/>
	
		<rect id="XMLID_13_" x="223.3" y="16.4" transform="matrix(0.891 0.454 -0.454 0.891 34.394 -99.4543)" class="st0" width="2" height="11"/>
	
		<rect id="XMLID_15_" x="237" y="24.3" transform="matrix(0.8387 0.5446 -0.5446 0.8387 54.6107 -124.8024)" class="st0" width="2" height="11"/>
	
		<rect id="XMLID_16_" x="243.5" y="28.7" transform="matrix(0.809 0.5878 -0.5878 0.809 66.8155 -137.1512)" class="st0" width="2" height="11"/>
	
		<rect id="XMLID_17_" x="249.7" y="33.5" transform="matrix(0.7771 0.6293 -0.6293 0.7771 80.4407 -149.0785)" class="st0" width="2" height="11"/>
	
		<rect id="XMLID_18_" x="255.7" y="38.7" transform="matrix(0.7431 0.6691 -0.6691 0.7431 95.4824 -160.4267)" class="st0" width="2" height="11"/>
	
		<rect id="XMLID_19_" x="261.4" y="44.1" transform="matrix(0.7071 0.7071 -0.7071 0.7071 111.9196 -171.0369)" class="st0" width="2" height="11"/>
	
		<rect id="XMLID_20_" x="266.8" y="49.8" transform="matrix(0.6691 0.7431 -0.7431 0.6691 129.714 -180.7507)" class="st0" width="2" height="11"/>
	
		<rect id="XMLID_21_" x="272" y="55.8" transform="matrix(0.6293 0.7771 -0.7771 0.6293 148.81 -189.4122)" class="st0" width="2" height="11"/>
	
		<rect id="XMLID_22_" x="276.8" y="62" transform="matrix(0.5878 0.809 -0.809 0.5878 169.1352 -196.8699)" class="st0" width="2" height="11"/>
	
		<rect id="XMLID_23_" x="281.2" y="68.5" transform="matrix(0.5446 0.8387 -0.8387 0.5446 190.6003 -202.9783)" class="st0" width="2" height="11"/>
	
		<rect id="XMLID_25_" x="289.1" y="82.2" transform="matrix(0.454 0.891 -0.891 0.454 236.5139 -210.6068)" class="st0" width="2" height="11"/>
	
		<rect id="XMLID_26_" x="292.5" y="89.3" transform="matrix(0.4067 0.9135 -0.9135 0.4067 260.7075 -211.882)" class="st0" width="2" height="11"/>
	
		<rect id="XMLID_27_" x="295.5" y="96.6" transform="matrix(0.3584 0.9336 -0.9336 0.3584 285.5328 -211.3216)" class="st0" width="2" height="11"/>
	
		<rect id="XMLID_28_" x="298.1" y="104" transform="matrix(0.309 0.9511 -0.9511 0.309 310.8305 -208.8356)" class="st0" width="2" height="11"/>
	
		<rect id="XMLID_29_" x="300.4" y="111.5" transform="matrix(0.2588 0.9659 -0.9659 0.2588 336.4305 -204.3493)" class="st0" width="2" height="11"/>
	
		<rect id="XMLID_30_" x="302.2" y="119.2" transform="matrix(0.2079 0.9781 -0.9781 0.2079 362.1541 -197.8046)" class="st0" width="2" height="11"/>
	
		<rect id="XMLID_31_" x="303.6" y="127" transform="matrix(0.1564 0.9877 -0.9877 0.1564 387.8156 -189.1606)" class="st0" width="2" height="11"/>
	
		<rect id="XMLID_32_" x="304.7" y="134.8" transform="matrix(0.1045 0.9945 -0.9945 0.1045 413.2238 -178.3946)" class="st0" width="2" height="11"/>
	
		<rect id="XMLID_33_" x="305.3" y="142.6" transform="matrix(5.233596e-02 0.9986 -0.9986 5.233596e-02 438.184 -165.5027)" class="st0" width="2" height="11"/>
	
		<rect id="XMLID_35_" x="305.3" y="158.4" transform="matrix(-5.233596e-02 0.9986 -0.9986 -5.233596e-02 485.9759 -133.4208)" class="st0" width="2" height="11"/>
	
		<rect id="XMLID_36_" x="304.7" y="166.2" transform="matrix(-0.1045 0.9945 -0.9945 -0.1045 508.4181 -114.3187)" class="st0" width="2" height="11"/>
	
		<rect id="XMLID_37_" x="303.6" y="174" transform="matrix(-0.1564 0.9877 -0.9877 -0.1564 529.6373 -93.2662)" class="st0" width="2" height="11"/>
	
		<rect id="XMLID_38_" x="302.2" y="181.8" transform="matrix(-0.2079 0.9781 -0.9781 -0.2079 549.4503 -70.3547)" class="st0" width="2" height="11"/>
	
		<rect id="XMLID_39_" x="300.4" y="189.5" transform="matrix(-0.2588 0.9659 -0.9659 -0.2588 567.682 -45.6932)" class="st0" width="2" height="11"/>
	
		<rect id="XMLID_40_" x="298.1" y="197" transform="matrix(-0.309 0.9511 -0.9511 -0.309 584.1672 -19.4082)" class="st0" width="2" height="11"/>
	
		<rect id="XMLID_41_" x="295.5" y="204.4" transform="matrix(-0.3584 0.9336 -0.9336 -0.3584 598.752 8.3579)" class="st0" width="2" height="11"/>
	
		<rect id="XMLID_42_" x="292.5" y="211.7" transform="matrix(-0.4067 0.9135 -0.9135 -0.4067 611.2959 37.4475)" class="st0" width="2" height="11"/>
	
		<rect id="XMLID_43_" x="289.1" y="218.8" transform="matrix(-0.454 0.891 -0.891 -0.454 621.6731 67.6894)" class="st0" width="2" height="11"/>
	
		<rect id="XMLID_45_" x="281.2" y="232.5" transform="matrix(-0.5446 0.8387 -0.8387 -0.5446 635.5048 130.8854)" class="st0" width="2" height="11"/>
	
		<rect id="XMLID_46_" x="276.8" y="239" transform="matrix(-0.5878 0.809 -0.809 -0.5878 638.7922 163.4425)" class="st0" width="2" height="11"/>
	
		<rect id="XMLID_47_" x="272" y="245.2" transform="matrix(-0.6293 0.7771 -0.7771 -0.6293 639.5804 196.3612)" class="st0" width="2" height="11"/>
	
		<rect id="XMLID_48_" x="266.8" y="251.2" transform="matrix(-0.6691 0.7431 -0.7431 -0.6691 637.8338 229.4264)" class="st0" width="2" height="11"/>
	
		<rect id="XMLID_49_" x="261.4" y="256.9" transform="matrix(-0.7071 0.7071 -0.7071 -0.7071 633.5369 262.4196)" class="st0" width="2" height="11"/>
	
		<rect id="XMLID_50_" x="255.7" y="262.3" transform="matrix(-0.7431 0.6691 -0.6691 -0.7431 626.6946 295.1211)" class="st0" width="2" height="11"/>
	
		<rect id="XMLID_51_" x="249.7" y="267.5" transform="matrix(-0.7771 0.6293 -0.6293 -0.7771 617.3327 327.312)" class="st0" width="2" height="11"/>
	
		<rect id="XMLID_52_" x="243.5" y="272.3" transform="matrix(-0.809 0.5878 -0.5878 -0.809 605.4968 358.7763)" class="st0" width="2" height="11"/>
	
		<rect id="XMLID_53_" x="237" y="276.7" transform="matrix(-0.8387 0.5446 -0.5446 -0.8387 591.2531 389.3027)" class="st0" width="2" height="11"/>
	
		<rect id="XMLID_55_" x="223.3" y="284.6" transform="matrix(-0.891 0.454 -0.454 -0.891 555.9022 446.7327)" class="st0" width="2" height="11"/>
	
		<rect id="XMLID_56_" x="216.2" y="288" transform="matrix(-0.9135 0.4067 -0.4067 -0.9135 535.0212 473.2549)" class="st0" width="2" height="11"/>
	
		<rect id="XMLID_57_" x="208.9" y="291" transform="matrix(-0.9336 0.3584 -0.3584 -0.9336 512.1825 498.0803)" class="st0" width="2" height="11"/>
	
		<rect id="XMLID_58_" x="201.5" y="293.6" transform="matrix(-0.9511 0.309 -0.309 -0.9511 487.5402 521.0493)" class="st0" width="2" height="11"/>
	
		<rect id="XMLID_59_" x="194" y="295.9" transform="matrix(-0.9659 0.2588 -0.2588 -0.9659 461.2625 542.0173)" class="st0" width="2" height="11"/>
	
		<rect id="XMLID_60_" x="186.3" y="297.7" transform="matrix(-0.9781 0.2079 -0.2079 -0.9781 433.5298 560.8566)" class="st0" width="2" height="11"/>
	
		<rect id="XMLID_61_" x="178.5" y="299.1" transform="matrix(-0.9877 0.1564 -0.1564 -0.9877 404.5336 577.4567)" class="st0" width="2" height="11"/>
	
		<rect id="XMLID_62_" x="170.7" y="300.2" transform="matrix(-0.9945 0.1045 -0.1045 -0.9945 374.4741 591.7257)" class="st0" width="2" height="11"/>
	
		<rect id="XMLID_63_" x="162.9" y="300.8" transform="matrix(-0.9986 5.233596e-02 -5.233596e-02 -0.9986 343.5587 603.5911)" class="st0" width="2" height="11"/>
	
		<rect id="XMLID_65_" x="147.1" y="300.8" transform="matrix(-0.9986 -5.233596e-02 5.233596e-02 -0.9986 280.0137 619.9199)" class="st0" width="2" height="11"/>
	
		<rect id="XMLID_66_" x="139.3" y="300.2" transform="matrix(-0.9945 -0.1045 0.1045 -0.9945 247.8167 624.3386)" class="st0" width="2" height="11"/>
	
		<rect id="XMLID_67_" x="131.5" y="299.1" transform="matrix(-0.9877 -0.1564 0.1564 -0.9877 215.6252 626.2643)" class="st0" width="2" height="11"/>
	
		<rect id="XMLID_68_" x="123.7" y="297.7" transform="matrix(-0.9781 -0.2079 0.2079 -0.9781 183.6522 625.725)" class="st0" width="2" height="11"/>
	
		<rect id="XMLID_69_" x="116" y="295.9" transform="matrix(-0.9659 -0.2588 0.2588 -0.9659 152.1064 622.7689)" class="st0" width="2" height="11"/>
	
		<rect id="XMLID_70_" x="108.5" y="293.6" transform="matrix(-0.9511 -0.309 0.309 -0.9511 121.1894 617.4625)" class="st0" width="2" height="11"/>
	
		<rect id="XMLID_71_" x="101.1" y="291" transform="matrix(-0.9336 -0.3584 0.3584 -0.9336 91.0946 609.8911)" class="st0" width="2" height="11"/>
	
		<rect id="XMLID_72_" x="93.8" y="288" transform="matrix(-0.9135 -0.4067 0.4067 -0.9135 62.005 600.1567)" class="st0" width="2" height="11"/>
	
		<rect id="XMLID_73_" x="86.7" y="284.6" transform="matrix(-0.891 -0.454 0.454 -0.891 34.0919 588.3777)" class="st0" width="2" height="11"/>
	
		<rect id="XMLID_75_" x="73" y="276.7" transform="matrix(-0.8387 -0.5446 0.5446 -0.8387 -17.5878 559.2301)" class="st0" width="2" height="11"/>
	
		<rect id="XMLID_76_" x="66.5" y="272.3" transform="matrix(-0.809 -0.5878 0.5878 -0.809 -41.0835 542.1653)" class="st0" width="2" height="11"/>
	
		<rect id="XMLID_77_" x="60.3" y="267.5" transform="matrix(-0.7771 -0.6293 0.6293 -0.7771 -62.8631 523.6599)" class="st0" width="2" height="11"/>
	
		<rect id="XMLID_78_" x="54.3" y="262.3" transform="matrix(-0.7431 -0.6691 0.6691 -0.7431 -82.8335 503.8898)" class="st0" width="2" height="11"/>
	
		<rect id="XMLID_79_" x="48.6" y="256.9" transform="matrix(-0.7071 -0.7071 0.7071 -0.7071 -100.9196 483.0369)" class="st0" width="2" height="11"/>
	
		<rect id="XMLID_80_" x="43.2" y="251.2" transform="matrix(-0.6691 -0.7431 0.7431 -0.6691 -117.0651 461.2876)" class="st0" width="2" height="11"/>
	
		<rect id="XMLID_81_" x="38" y="245.2" transform="matrix(-0.6293 -0.7771 0.7771 -0.6293 -131.2325 438.8307)" class="st0" width="2" height="11"/>
	
		<rect id="XMLID_82_" x="33.2" y="239" transform="matrix(-0.5878 -0.809 0.809 -0.5878 -143.4032 415.8558)" class="st0" width="2" height="11"/>
	
		<rect id="XMLID_83_" x="28.8" y="232.5" transform="matrix(-0.5446 -0.8387 0.8387 -0.5446 -153.5774 392.5506)" class="st0" width="2" height="11"/>
	
		<rect id="XMLID_85_" x="20.9" y="218.8" transform="matrix(-0.454 -0.891 0.891 -0.454 -168.028 345.6834)" class="st0" width="2" height="11"/>
	
		<rect id="XMLID_86_" x="17.5" y="211.7" transform="matrix(-0.4067 -0.9135 0.9135 -0.4067 -172.3941 322.4737)" class="st0" width="2" height="11"/>
	
		<rect id="XMLID_87_" x="14.5" y="204.4" transform="matrix(-0.3584 -0.9336 0.9336 -0.3584 -174.9412 299.635)" class="st0" width="2" height="11"/>
	
		<rect id="XMLID_88_" x="11.9" y="197" transform="matrix(-0.309 -0.9511 0.9511 -0.309 -175.7538 277.3215)" class="st0" width="2" height="11"/>
	
		<rect id="XMLID_89_" x="9.6" y="189.5" transform="matrix(-0.2588 -0.9659 0.9659 -0.2588 -174.9305 255.6756)" class="st0" width="2" height="11"/>
	
		<rect id="XMLID_90_" x="7.8" y="181.8" transform="matrix(-0.2079 -0.9781 0.9781 -0.2079 -172.5819 234.8274)" class="st0" width="2" height="11"/>
	
		<rect id="XMLID_91_" x="6.4" y="174" transform="matrix(-0.1564 -0.9877 0.9877 -0.1564 -168.8298 214.8925)" class="st0" width="2" height="11"/>
	
		<rect id="XMLID_92_" x="5.3" y="166.2" transform="matrix(-0.1045 -0.9945 0.9945 -0.1045 -163.8052 195.9722)" class="st0" width="2" height="11"/>
	
		<rect id="XMLID_93_" x="4.7" y="158.4" transform="matrix(-5.233596e-02 -0.9986 0.9986 -5.233596e-02 -157.6471 178.1516)" class="st0" width="2" height="11"/>
	
		<rect id="XMLID_95_" x="4.7" y="142.6" transform="matrix(5.233596e-02 -0.9986 0.9986 5.233596e-02 -142.5128 146.0697)" class="st0" width="2" height="11"/>
	
		<rect id="XMLID_96_" x="5.3" y="134.8" transform="matrix(0.1045 -0.9945 0.9945 0.1045 -133.8367 131.8962)" class="st0" width="2" height="11"/>
	
		<rect id="XMLID_97_" x="6.4" y="127" transform="matrix(0.1564 -0.9877 0.9877 0.1564 -124.6232 118.9982)" class="st0" width="2" height="11"/>
	
		<rect id="XMLID_98_" x="7.8" y="119.2" transform="matrix(0.2079 -0.9781 0.9781 0.2079 -115.0226 107.3775)" class="st0" width="2" height="11"/>
	
		<rect id="XMLID_99_" x="9.6" y="111.5" transform="matrix(0.2588 -0.9659 0.9659 0.2588 -105.182 97.0196)" class="st0" width="2" height="11"/>
	
		<rect id="XMLID_100_" x="11.9" y="104" transform="matrix(0.309 -0.9511 0.9511 0.309 -95.2438 87.8941)" class="st0" width="2" height="11"/>
	
		<rect id="XMLID_101_" x="14.5" y="96.6" transform="matrix(0.3584 -0.9336 0.9336 0.3584 -85.3436 79.9555)" class="st0" width="2" height="11"/>
	
		<rect id="XMLID_102_" x="17.5" y="89.3" transform="matrix(0.4067 -0.9135 0.9135 0.4067 -75.6093 73.1442)" class="st0" width="2" height="11"/>
	
		<rect id="XMLID_103_" x="20.9" y="82.2" transform="matrix(0.454 -0.891 0.891 0.454 -66.159 67.3873)" class="st0" width="2" height="11"/>
	
		<rect id="XMLID_105_" x="28.8" y="68.5" transform="matrix(0.5446 -0.8387 0.8387 0.5446 -48.5276 58.6869)" class="st0" width="2" height="11"/>
	
		<rect id="XMLID_106_" x="33.2" y="62" transform="matrix(0.5878 -0.809 0.809 0.5878 -40.5242 55.5434)" class="st0" width="2" height="11"/>
	
		<rect id="XMLID_107_" x="38" y="55.8" transform="matrix(0.6293 -0.7771 0.7771 0.6293 -33.158 53.0574)" class="st0" width="2" height="11"/>
	
		<rect id="XMLID_108_" x="43.2" y="49.8" transform="matrix(0.6691 -0.7431 0.7431 0.6691 -26.4827 51.1105)" class="st0" width="2" height="11"/>
	
		<rect id="XMLID_109_" x="48.6" y="44.1" transform="matrix(0.7071 -0.7071 0.7071 0.7071 -20.5369 49.5804)" class="st0" width="2" height="11"/>
	
		<rect id="XMLID_110_" x="54.3" y="38.7" transform="matrix(0.7431 -0.6691 0.6691 0.7431 -15.3436 48.342)" class="st0" width="2" height="11"/>
	
		<rect id="XMLID_111_" x="60.3" y="33.5" transform="matrix(0.7771 -0.6293 0.6293 0.7771 -10.9103 47.2695)" class="st0" width="2" height="11"/>
	
		<rect id="XMLID_112_" x="66.5" y="28.7" transform="matrix(0.809 -0.5878 0.5878 0.809 -7.2288 46.2378)" class="st0" width="2" height="11"/>
	
		<rect id="XMLID_113_" x="73" y="24.3" transform="matrix(0.8387 -0.5446 0.5446 0.8387 -4.2759 45.125)" class="st0" width="2" height="11"/>
	
		<rect id="XMLID_115_" x="86.7" y="16.4" transform="matrix(0.891 -0.454 0.454 0.891 -0.388 42.1907)" class="st0" width="2" height="11"/>
	
		<rect id="XMLID_116_" x="93.8" y="13" transform="matrix(0.9135 -0.4067 0.4067 0.9135 0.6654 40.1534)" class="st0" width="2" height="11"/>
	
		<rect id="XMLID_117_" x="101.1" y="10" transform="matrix(0.9336 -0.3584 0.3584 0.9336 1.2258 37.6063)" class="st0" width="2" height="11"/>
	
		<rect id="XMLID_118_" x="108.5" y="7.4" transform="matrix(0.9511 -0.309 0.309 0.9511 1.3832 34.4649)" class="st0" width="2" height="11"/>
	
		<rect id="XMLID_119_" x="116" y="5.1" transform="matrix(0.9659 -0.2588 0.2588 0.9659 1.2375 30.6563)" class="st0" width="2" height="11"/>
	
		<rect id="XMLID_120_" x="123.7" y="3.3" transform="matrix(0.9781 -0.2079 0.2079 0.9781 0.8979 26.1206)" class="st0" width="2" height="11"/>
	
		<rect id="XMLID_121_" x="131.5" y="1.9" transform="matrix(0.9877 -0.1564 0.1564 0.9877 0.4805 20.8113)" class="st0" width="2" height="11"/>
	
		<rect id="XMLID_122_" x="139.3" y="0.8" transform="matrix(0.9945 -0.1045 0.1045 0.9945 0.1073 14.6967)" class="st0" width="2" height="11"/>
	
		<rect id="XMLID_123_" x="147.1" y="0.2" transform="matrix(0.9986 -5.233596e-02 5.233596e-02 0.9986 -9.564429e-02 7.76)" class="st0" width="2" height="11"/>
	<rect id="XMLID_1_" x="155" class="st1" width="2" height="11"/>
	
		<rect id="XMLID_14_" x="230.2" y="20.2" transform="matrix(0.866 0.5 -0.5 0.866 43.8132 -112.1868)" class="st1" width="2" height="11"/>
	
		<rect id="XMLID_24_" x="285.3" y="75.2" transform="matrix(0.5 0.866 -0.866 0.5 213.1 -207.6)" class="st1" width="2" height="11"/>
	<rect id="XMLID_34_" x="301" y="155" class="st1" width="11" height="2"/>
	
		<rect id="XMLID_44_" x="285.3" y="225.8" transform="matrix(-0.5 0.866 -0.866 -0.5 629.7736 98.9)" class="st1" width="2" height="11"/>
	
		<rect id="XMLID_54_" x="230.2" y="280.8" transform="matrix(-0.866 0.5 -0.5 -0.866 574.6868 418.6868)" class="st1" width="2" height="11"/>
	<rect id="XMLID_64_" x="155" y="301" class="st1" width="2" height="11"/>
	
		<rect id="XMLID_74_" x="79.8" y="280.8" transform="matrix(-0.866 -0.5 0.5 -0.866 7.5131 574.6868)" class="st1" width="2" height="11"/>
	
		<rect id="XMLID_84_" x="24.7" y="225.8" transform="matrix(-0.5 -0.866 0.866 -0.5 -161.7736 369.1)" class="st1" width="2" height="11"/>
	<rect id="XMLID_94_" x="0" y="155" class="st1" width="11" height="2"/>
	<rect id="XMLID_104_" x="24.7" y="75.2" transform="matrix(0.5 -0.866 0.866 0.5 -57.1 62.6)" class="st1" width="2" height="11"/>
	
		<rect id="XMLID_114_" x="79.8" y="20.2" transform="matrix(0.866 -0.5 0.5 0.866 -2.0131 43.8132)" class="st1" width="2" height="11"/>
</g>
</svg>
