<?xml version="1.0" encoding="utf-8"?>
<!-- Generator: Adobe Illustrator 19.0.0, SVG Export Plug-In . SVG Version: 6.00 Build 0)  -->
<svg version="1.1" id="Ebene_1" xmlns="http://www.w3.org/2000/svg" xmlns:xlink="http://www.w3.org/1999/xlink" x="0px" y="0px"
	 viewBox="0 0 312 312" style="enable-background:new 0 0 312 312;" xml:space="preserve">
<style type="text/css">
	.st0{fill:#B2B2B2;}
</style>
<path id="XMLID_1_" class="st0" d="M156.7,61L156.7,61c-2.2,0-4-1.8-4-4V26c0-2.2,1.8-4,4-4l0,0c2.2,0,4,1.8,4,4v31
	C160.7,59.2,158.9,61,156.7,61z"/>
<path id="XMLID_5_" class="st0" d="M204.1,74.1L204.1,74.1c-1.9-1.1-2.6-3.6-1.5-5.5l15.5-26.8c1.1-1.9,3.6-2.6,5.5-1.5v0
	c1.9,1.1,2.6,3.6,1.5,5.5l-15.5,26.8C208.5,74.5,206,75.2,204.1,74.1z"/>
<path id="XMLID_6_" class="st0" d="M238.6,109.1L238.6,109.1c-1.1-1.9-0.4-4.4,1.5-5.5l26.8-15.5c1.9-1.1,4.4-0.4,5.5,1.5v0
	c1.1,1.9,0.4,4.4-1.5,5.5l-26.8,15.5C242.2,111.7,239.7,111,238.6,109.1z"/>
<path id="XMLID_7_" class="st0" d="M251,156.7L251,156.7c0-2.2,1.8-4,4-4h31c2.2,0,4,1.8,4,4l0,0c0,2.2-1.8,4-4,4h-31
	C252.8,160.7,251,158.9,251,156.7z"/>
<path id="XMLID_8_" class="st0" d="M237.9,204.1L237.9,204.1c1.1-1.9,3.6-2.6,5.5-1.5l26.8,15.5c1.9,1.1,2.6,3.6,1.5,5.5l0,0
	c-1.1,1.9-3.6,2.6-5.5,1.5l-26.8-15.5C237.5,208.5,236.8,206,237.9,204.1z"/>
<path id="XMLID_9_" class="st0" d="M202.9,238.6L202.9,238.6c1.9-1.1,4.4-0.4,5.5,1.5l15.5,26.8c1.1,1.9,0.4,4.4-1.5,5.5l0,0
	c-1.9,1.1-4.4,0.4-5.5-1.5l-15.5-26.8C200.3,242.2,201,239.7,202.9,238.6z"/>
<path id="XMLID_10_" class="st0" d="M155.3,251L155.3,251c2.2,0,4,1.8,4,4v31c0,2.2-1.8,4-4,4l0,0c-2.2,0-4-1.8-4-4v-31
	C151.3,252.8,153.1,251,155.3,251z"/>
<path id="XMLID_11_" class="st0" d="M107.9,237.9L107.9,237.9c1.9,1.1,2.6,3.6,1.5,5.5l-15.5,26.8c-1.1,1.9-3.6,2.6-5.5,1.5h0
	c-1.9-1.1-2.6-3.6-1.5-5.5l15.5-26.8C103.5,237.5,106,236.8,107.9,237.9z"/>
<path id="XMLID_12_" class="st0" d="M73.4,202.9L73.4,202.9c1.1,1.9,0.4,4.4-1.5,5.5l-26.8,15.5c-1.9,1.1-4.4,0.4-5.5-1.5h0
	c-1.1-1.9-0.4-4.4,1.5-5.5l26.8-15.5C69.8,200.3,72.3,201,73.4,202.9z"/>
<path id="XMLID_13_" class="st0" d="M61,155.3L61,155.3c0,2.2-1.8,4-4,4H26c-2.2,0-4-1.8-4-4l0,0c0-2.2,1.8-4,4-4h31
	C59.2,151.3,61,153.1,61,155.3z"/>
<path id="XMLID_14_" class="st0" d="M74.1,107.9L74.1,107.9c-1.1,1.9-3.6,2.6-5.5,1.5L41.8,93.9c-1.9-1.1-2.6-3.6-1.5-5.5l0,0
	c1.1-1.9,3.6-2.6,5.5-1.5l26.8,15.5C74.5,103.5,75.2,106,74.1,107.9z"/>
<path id="XMLID_15_" class="st0" d="M109.1,73.4L109.1,73.4c-1.9,1.1-4.4,0.4-5.5-1.5L88.1,45.1c-1.1-1.9-0.4-4.4,1.5-5.5l0,0
	c1.9-1.1,4.4-0.4,5.5,1.5l15.5,26.8C111.7,69.8,111,72.3,109.1,73.4z"/>
</svg>
